<mxfile host="app.diagrams.net" agent="Mozilla/5.0 (Windows NT 10.0; Win64; x64; rv:142.0) Gecko/20100101 Firefox/142.0" version="28.1.1">
  <diagram name="Page-1" id="q2_0RHuTO6xgpEpmJLxP">
    <mxGraphModel dx="6887" dy="5430" grid="1" gridSize="10" guides="1" tooltips="1" connect="1" arrows="1" fold="1" page="1" pageScale="1" pageWidth="850" pageHeight="1100" math="0" shadow="0">
      <root>
        <mxCell id="0" />
        <mxCell id="1" parent="0" />
        <mxCell id="sTG8xCZrIZPABYyQ_F5g-1" value="INTERFRAME" style="rounded=1;whiteSpace=wrap;html=1;fontSize=36;fillColor=#dae8fc;strokeColor=#6c8ebf;" vertex="1" parent="1">
          <mxGeometry x="80" y="120" width="240" height="160" as="geometry" />
        </mxCell>
        <mxCell id="sTG8xCZrIZPABYyQ_F5g-2" value="INTERLINE" style="rounded=1;whiteSpace=wrap;html=1;fontSize=36;fillColor=#dae8fc;strokeColor=#6c8ebf;" vertex="1" parent="1">
          <mxGeometry x="520" y="120" width="240" height="160" as="geometry" />
        </mxCell>
        <mxCell id="sTG8xCZrIZPABYyQ_F5g-3" value="READ SAV" style="rounded=1;whiteSpace=wrap;html=1;fontSize=36;fillColor=#dae8fc;strokeColor=#6c8ebf;" vertex="1" parent="1">
          <mxGeometry x="960" y="120" width="240" height="160" as="geometry" />
        </mxCell>
        <mxCell id="sTG8xCZrIZPABYyQ_F5g-4" value="VALID DATA" style="rounded=1;whiteSpace=wrap;html=1;fontSize=36;fillColor=#dae8fc;strokeColor=#6c8ebf;" vertex="1" parent="1">
          <mxGeometry x="1440" y="540" width="240" height="160" as="geometry" />
        </mxCell>
        <mxCell id="sTG8xCZrIZPABYyQ_F5g-5" value="FRAME INFO" style="rounded=1;whiteSpace=wrap;html=1;fontSize=36;fillColor=#dae8fc;strokeColor=#6c8ebf;" vertex="1" parent="1">
          <mxGeometry x="1440" y="-20" width="240" height="160" as="geometry" />
        </mxCell>
        <mxCell id="sTG8xCZrIZPABYyQ_F5g-6" value="VBLANK" style="rounded=1;whiteSpace=wrap;html=1;fontSize=36;fillColor=#dae8fc;strokeColor=#6c8ebf;" vertex="1" parent="1">
          <mxGeometry x="1440" y="-300" width="240" height="160" as="geometry" />
        </mxCell>
        <mxCell id="sTG8xCZrIZPABYyQ_F5g-7" value="VOB" style="rounded=1;whiteSpace=wrap;html=1;fontSize=36;fillColor=#dae8fc;strokeColor=#6c8ebf;" vertex="1" parent="1">
          <mxGeometry x="1440" y="260" width="240" height="160" as="geometry" />
        </mxCell>
        <mxCell id="sTG8xCZrIZPABYyQ_F5g-8" value="AWAIT FRAME" style="rounded=1;whiteSpace=wrap;html=1;fontSize=36;fillColor=#dae8fc;strokeColor=#6c8ebf;" vertex="1" parent="1">
          <mxGeometry x="80" y="480" width="240" height="160" as="geometry" />
        </mxCell>
        <mxCell id="sTG8xCZrIZPABYyQ_F5g-9" value="HBLANK" style="rounded=1;whiteSpace=wrap;html=1;fontSize=36;fillColor=#dae8fc;strokeColor=#6c8ebf;" vertex="1" parent="1">
          <mxGeometry x="520" y="480" width="240" height="160" as="geometry" />
        </mxCell>
        <mxCell id="sTG8xCZrIZPABYyQ_F5g-10" value="READ EAV" style="rounded=1;whiteSpace=wrap;html=1;fontSize=36;fillColor=#dae8fc;strokeColor=#6c8ebf;" vertex="1" parent="1">
          <mxGeometry x="960" y="720" width="240" height="160" as="geometry" />
        </mxCell>
        <mxCell id="sTG8xCZrIZPABYyQ_F5g-12" value="" style="shape=flexArrow;endArrow=classic;html=1;rounded=0;exitX=1;exitY=0.5;exitDx=0;exitDy=0;entryX=0;entryY=0.5;entryDx=0;entryDy=0;startSize=10;endSize=10;sourcePerimeterSpacing=1;fillColor=#000000;" edge="1" parent="1" source="sTG8xCZrIZPABYyQ_F5g-1">
          <mxGeometry width="50" height="50" relative="1" as="geometry">
            <mxPoint x="430" y="220" as="sourcePoint" />
            <mxPoint x="520" y="199.99999999999955" as="targetPoint" />
          </mxGeometry>
        </mxCell>
        <mxCell id="sTG8xCZrIZPABYyQ_F5g-13" value="" style="shape=flexArrow;endArrow=classic;html=1;rounded=0;exitX=1;exitY=0.5;exitDx=0;exitDy=0;entryX=1;entryY=1;entryDx=0;entryDy=0;startSize=10;endSize=10;sourcePerimeterSpacing=1;fillColor=#000000;" edge="1" parent="1" target="sTG8xCZrIZPABYyQ_F5g-30">
          <mxGeometry width="50" height="50" relative="1" as="geometry">
            <mxPoint x="760" y="199.70999999999998" as="sourcePoint" />
            <mxPoint x="920" y="199.70999999999998" as="targetPoint" />
          </mxGeometry>
        </mxCell>
        <mxCell id="sTG8xCZrIZPABYyQ_F5g-15" value="" style="shape=flexArrow;endArrow=classic;html=1;rounded=0;entryX=0;entryY=0.5;entryDx=0;entryDy=0;fillColor=#000000;" edge="1" parent="1" target="sTG8xCZrIZPABYyQ_F5g-5">
          <mxGeometry width="50" height="50" relative="1" as="geometry">
            <mxPoint x="1200" y="190" as="sourcePoint" />
            <mxPoint x="1290" y="140" as="targetPoint" />
            <Array as="points">
              <mxPoint x="1280" y="190" />
              <mxPoint x="1280" y="60" />
            </Array>
          </mxGeometry>
        </mxCell>
        <mxCell id="sTG8xCZrIZPABYyQ_F5g-16" value="" style="shape=flexArrow;endArrow=classic;html=1;rounded=0;entryX=0;entryY=0.5;entryDx=0;entryDy=0;fillColor=#000000;" edge="1" parent="1" target="sTG8xCZrIZPABYyQ_F5g-6">
          <mxGeometry width="50" height="50" relative="1" as="geometry">
            <mxPoint x="1200" y="170" as="sourcePoint" />
            <mxPoint x="1290" y="120" as="targetPoint" />
            <Array as="points">
              <mxPoint x="1240" y="170" />
              <mxPoint x="1240" y="-220" />
            </Array>
          </mxGeometry>
        </mxCell>
        <mxCell id="sTG8xCZrIZPABYyQ_F5g-17" value="" style="shape=flexArrow;endArrow=classic;html=1;rounded=0;entryX=0;entryY=0.5;entryDx=0;entryDy=0;fillColor=#000000;" edge="1" parent="1" target="sTG8xCZrIZPABYyQ_F5g-7">
          <mxGeometry width="50" height="50" relative="1" as="geometry">
            <mxPoint x="1200" y="210" as="sourcePoint" />
            <mxPoint x="1290" y="160" as="targetPoint" />
            <Array as="points">
              <mxPoint x="1280" y="210" />
              <mxPoint x="1280" y="340" />
            </Array>
          </mxGeometry>
        </mxCell>
        <mxCell id="sTG8xCZrIZPABYyQ_F5g-18" value="" style="shape=flexArrow;endArrow=classic;html=1;rounded=0;entryX=0;entryY=0.5;entryDx=0;entryDy=0;fillColor=#000000;" edge="1" parent="1" target="sTG8xCZrIZPABYyQ_F5g-4">
          <mxGeometry width="50" height="50" relative="1" as="geometry">
            <mxPoint x="1200" y="230" as="sourcePoint" />
            <mxPoint x="1290" y="180" as="targetPoint" />
            <Array as="points">
              <mxPoint x="1240" y="230" />
              <mxPoint x="1240" y="620" />
            </Array>
          </mxGeometry>
        </mxCell>
        <mxCell id="sTG8xCZrIZPABYyQ_F5g-19" value="" style="shape=flexArrow;endArrow=classic;html=1;rounded=0;exitX=1;exitY=0.5;exitDx=0;exitDy=0;entryX=1;entryY=0.5;entryDx=0;entryDy=0;fillColor=#000000;" edge="1" parent="1" source="sTG8xCZrIZPABYyQ_F5g-4" target="sTG8xCZrIZPABYyQ_F5g-10">
          <mxGeometry width="50" height="50" relative="1" as="geometry">
            <mxPoint x="2060" y="-150" as="sourcePoint" />
            <mxPoint x="2110" y="-200" as="targetPoint" />
            <Array as="points">
              <mxPoint x="1760" y="620" />
              <mxPoint x="1760" y="800" />
            </Array>
          </mxGeometry>
        </mxCell>
        <mxCell id="sTG8xCZrIZPABYyQ_F5g-21" value="" style="shape=flexArrow;endArrow=none;html=1;rounded=0;exitX=1;exitY=0.5;exitDx=0;exitDy=0;fillColor=#000000;endFill=0;" edge="1" parent="1" source="sTG8xCZrIZPABYyQ_F5g-7">
          <mxGeometry width="50" height="50" relative="1" as="geometry">
            <mxPoint x="1780" y="340" as="sourcePoint" />
            <mxPoint x="1760" y="620" as="targetPoint" />
            <Array as="points">
              <mxPoint x="1760" y="340" />
            </Array>
          </mxGeometry>
        </mxCell>
        <mxCell id="sTG8xCZrIZPABYyQ_F5g-22" value="" style="shape=flexArrow;endArrow=none;html=1;rounded=0;exitX=1;exitY=0.5;exitDx=0;exitDy=0;strokeColor=#000000;fillColor=#000000;endFill=0;" edge="1" parent="1">
          <mxGeometry width="50" height="50" relative="1" as="geometry">
            <mxPoint x="1680" y="60" as="sourcePoint" />
            <mxPoint x="1760" y="350" as="targetPoint" />
            <Array as="points">
              <mxPoint x="1760" y="60" />
            </Array>
          </mxGeometry>
        </mxCell>
        <mxCell id="sTG8xCZrIZPABYyQ_F5g-23" value="" style="shape=flexArrow;endArrow=none;html=1;rounded=0;exitX=1;exitY=0.5;exitDx=0;exitDy=0;fillColor=#000000;endFill=0;" edge="1" parent="1">
          <mxGeometry width="50" height="50" relative="1" as="geometry">
            <mxPoint x="1680" y="-220" as="sourcePoint" />
            <mxPoint x="1760" y="60" as="targetPoint" />
            <Array as="points">
              <mxPoint x="1760" y="-220" />
            </Array>
          </mxGeometry>
        </mxCell>
        <mxCell id="sTG8xCZrIZPABYyQ_F5g-24" value="" style="shape=flexArrow;endArrow=classic;html=1;rounded=0;exitX=0;exitY=0.25;exitDx=0;exitDy=0;entryX=0.5;entryY=1;entryDx=0;entryDy=0;fillColor=#000000;" edge="1" parent="1" source="sTG8xCZrIZPABYyQ_F5g-10" target="sTG8xCZrIZPABYyQ_F5g-9">
          <mxGeometry width="50" height="50" relative="1" as="geometry">
            <mxPoint x="920" y="759.9999999999995" as="sourcePoint" />
            <mxPoint x="830" y="650" as="targetPoint" />
            <Array as="points">
              <mxPoint x="640" y="760" />
            </Array>
          </mxGeometry>
        </mxCell>
        <mxCell id="sTG8xCZrIZPABYyQ_F5g-25" value="" style="shape=flexArrow;endArrow=classic;html=1;rounded=0;exitX=0;exitY=0.75;exitDx=0;exitDy=0;entryX=0.5;entryY=1;entryDx=0;entryDy=0;fillColor=#000000;" edge="1" parent="1" source="sTG8xCZrIZPABYyQ_F5g-10" target="sTG8xCZrIZPABYyQ_F5g-8">
          <mxGeometry width="50" height="50" relative="1" as="geometry">
            <mxPoint x="1120" y="990" as="sourcePoint" />
            <mxPoint x="840" y="870" as="targetPoint" />
            <Array as="points">
              <mxPoint x="200" y="840" />
            </Array>
          </mxGeometry>
        </mxCell>
        <mxCell id="sTG8xCZrIZPABYyQ_F5g-26" value="" style="shape=flexArrow;endArrow=classic;html=1;rounded=0;exitX=0.5;exitY=0;exitDx=0;exitDy=0;entryX=0.5;entryY=1;entryDx=0;entryDy=0;fillColor=#000000;strokeWidth=1;" edge="1" parent="1" source="sTG8xCZrIZPABYyQ_F5g-8" target="sTG8xCZrIZPABYyQ_F5g-1">
          <mxGeometry width="50" height="50" relative="1" as="geometry">
            <mxPoint x="450" y="430" as="sourcePoint" />
            <mxPoint x="500" y="380" as="targetPoint" />
          </mxGeometry>
        </mxCell>
        <mxCell id="sTG8xCZrIZPABYyQ_F5g-27" value="" style="shape=flexArrow;endArrow=classic;html=1;rounded=0;exitX=0.5;exitY=0;exitDx=0;exitDy=0;entryX=0.5;entryY=1;entryDx=0;entryDy=0;fillColor=#000000;" edge="1" parent="1">
          <mxGeometry width="50" height="50" relative="1" as="geometry">
            <mxPoint x="639.5799999999999" y="480" as="sourcePoint" />
            <mxPoint x="639.5799999999999" y="280" as="targetPoint" />
          </mxGeometry>
        </mxCell>
        <mxCell id="sTG8xCZrIZPABYyQ_F5g-28" value="VSYNC = 1" style="text;html=1;align=center;verticalAlign=middle;whiteSpace=wrap;rounded=0;fontSize=32;" vertex="1" parent="1">
          <mxGeometry x="320" y="120" width="200" height="80" as="geometry" />
        </mxCell>
        <mxCell id="sTG8xCZrIZPABYyQ_F5g-30" value="HSYNC = 1" style="text;html=1;align=center;verticalAlign=middle;whiteSpace=wrap;rounded=0;fontSize=32;horizontal=1;" vertex="1" parent="1">
          <mxGeometry x="760" y="120" width="200" height="80" as="geometry" />
        </mxCell>
        <mxCell id="sTG8xCZrIZPABYyQ_F5g-31" value="&lt;div&gt;SAV VALID&lt;/div&gt;&lt;div&gt;LINE 1&lt;/div&gt;" style="text;html=1;align=center;verticalAlign=middle;whiteSpace=wrap;rounded=0;fontSize=32;" vertex="1" parent="1">
          <mxGeometry x="1240" y="-30" width="200" height="90" as="geometry" />
        </mxCell>
        <mxCell id="sTG8xCZrIZPABYyQ_F5g-32" value="SAV INVALID" style="text;html=1;align=center;verticalAlign=middle;whiteSpace=wrap;rounded=0;fontSize=32;" vertex="1" parent="1">
          <mxGeometry x="1240" y="-300" width="200" height="80" as="geometry" />
        </mxCell>
        <mxCell id="sTG8xCZrIZPABYyQ_F5g-33" value="&lt;div&gt;SAV VALID&lt;/div&gt;&lt;div&gt;LINE 2-34&lt;/div&gt;" style="text;html=1;align=center;verticalAlign=middle;whiteSpace=wrap;rounded=0;fontSize=32;" vertex="1" parent="1">
          <mxGeometry x="1240" y="340" width="200" height="90" as="geometry" />
        </mxCell>
        <mxCell id="sTG8xCZrIZPABYyQ_F5g-36" value="&lt;div&gt;SAV VALID&lt;/div&gt;&lt;div&gt;LINE 35-1135&lt;/div&gt;" style="text;html=1;align=center;verticalAlign=middle;whiteSpace=wrap;rounded=0;fontSize=32;" vertex="1" parent="1">
          <mxGeometry x="1240" y="620" width="200" height="90" as="geometry" />
        </mxCell>
        <mxCell id="sTG8xCZrIZPABYyQ_F5g-37" value="MAX PIXELS PER ROW REACHED" style="text;html=1;align=center;verticalAlign=middle;whiteSpace=wrap;rounded=0;fontSize=32;" vertex="1" parent="1">
          <mxGeometry x="1200" y="720" width="560" height="80" as="geometry" />
        </mxCell>
        <mxCell id="sTG8xCZrIZPABYyQ_F5g-38" value="LINE 1-1135" style="text;html=1;align=center;verticalAlign=middle;whiteSpace=wrap;rounded=0;fontSize=32;" vertex="1" parent="1">
          <mxGeometry x="640" y="680" width="280" height="80" as="geometry" />
        </mxCell>
        <mxCell id="sTG8xCZrIZPABYyQ_F5g-39" value="LINE 1136" style="text;html=1;align=center;verticalAlign=middle;whiteSpace=wrap;rounded=0;fontSize=32;" vertex="1" parent="1">
          <mxGeometry x="200" y="760" width="440" height="80" as="geometry" />
        </mxCell>
        <mxCell id="sTG8xCZrIZPABYyQ_F5g-40" value="HSYNC = 0" style="text;html=1;align=center;verticalAlign=middle;whiteSpace=wrap;rounded=0;fontSize=32;" vertex="1" parent="1">
          <mxGeometry x="640" y="340" width="200" height="80" as="geometry" />
        </mxCell>
        <mxCell id="sTG8xCZrIZPABYyQ_F5g-41" value="VSYNC = 0" style="text;html=1;align=center;verticalAlign=middle;whiteSpace=wrap;rounded=0;fontSize=32;" vertex="1" parent="1">
          <mxGeometry x="200" y="340" width="200" height="80" as="geometry" />
        </mxCell>
        <mxCell id="sTG8xCZrIZPABYyQ_F5g-42" value="" style="curved=1;endArrow=block;html=1;rounded=0;entryX=0.833;entryY=0;entryDx=0;entryDy=0;entryPerimeter=0;strokeWidth=9;exitX=0.167;exitY=0;exitDx=0;exitDy=0;exitPerimeter=0;endFill=1;" edge="1" parent="1" source="sTG8xCZrIZPABYyQ_F5g-1" target="sTG8xCZrIZPABYyQ_F5g-1">
          <mxGeometry width="50" height="50" relative="1" as="geometry">
            <mxPoint x="130" y="-40" as="sourcePoint" />
            <mxPoint x="180" y="-90" as="targetPoint" />
            <Array as="points">
              <mxPoint x="120" y="40" />
              <mxPoint x="280" y="40" />
            </Array>
          </mxGeometry>
        </mxCell>
        <mxCell id="sTG8xCZrIZPABYyQ_F5g-44" value="" style="curved=1;endArrow=block;html=1;rounded=0;entryX=0.833;entryY=0;entryDx=0;entryDy=0;entryPerimeter=0;strokeWidth=9;exitX=0.167;exitY=0;exitDx=0;exitDy=0;exitPerimeter=0;endFill=1;" edge="1" parent="1">
          <mxGeometry width="50" height="50" relative="1" as="geometry">
            <mxPoint x="560" y="120" as="sourcePoint" />
            <mxPoint x="720" y="120" as="targetPoint" />
            <Array as="points">
              <mxPoint x="560" y="40" />
              <mxPoint x="720" y="40" />
            </Array>
          </mxGeometry>
        </mxCell>
        <mxCell id="sTG8xCZrIZPABYyQ_F5g-45" value="" style="curved=1;endArrow=block;html=1;rounded=0;entryX=0.833;entryY=0;entryDx=0;entryDy=0;entryPerimeter=0;strokeWidth=9;exitX=0.167;exitY=0;exitDx=0;exitDy=0;exitPerimeter=0;endFill=1;" edge="1" parent="1">
          <mxGeometry width="50" height="50" relative="1" as="geometry">
            <mxPoint x="1000" y="120" as="sourcePoint" />
            <mxPoint x="1160" y="120" as="targetPoint" />
            <Array as="points">
              <mxPoint x="1000" y="40" />
              <mxPoint x="1160" y="40" />
            </Array>
          </mxGeometry>
        </mxCell>
        <mxCell id="sTG8xCZrIZPABYyQ_F5g-46" value="" style="curved=1;endArrow=block;html=1;rounded=0;entryX=0.833;entryY=0;entryDx=0;entryDy=0;entryPerimeter=0;strokeWidth=9;exitX=0.167;exitY=0;exitDx=0;exitDy=0;exitPerimeter=0;endFill=1;" edge="1" parent="1">
          <mxGeometry width="50" height="50" relative="1" as="geometry">
            <mxPoint x="1480" y="-300" as="sourcePoint" />
            <mxPoint x="1640" y="-300" as="targetPoint" />
            <Array as="points">
              <mxPoint x="1480" y="-380" />
              <mxPoint x="1640" y="-380" />
            </Array>
          </mxGeometry>
        </mxCell>
        <mxCell id="sTG8xCZrIZPABYyQ_F5g-47" value="" style="curved=1;endArrow=block;html=1;rounded=0;entryX=0.833;entryY=0;entryDx=0;entryDy=0;entryPerimeter=0;strokeWidth=9;exitX=0.167;exitY=0;exitDx=0;exitDy=0;exitPerimeter=0;endFill=1;" edge="1" parent="1">
          <mxGeometry width="50" height="50" relative="1" as="geometry">
            <mxPoint x="1480" y="-20" as="sourcePoint" />
            <mxPoint x="1640" y="-20" as="targetPoint" />
            <Array as="points">
              <mxPoint x="1480" y="-100" />
              <mxPoint x="1640" y="-100" />
            </Array>
          </mxGeometry>
        </mxCell>
        <mxCell id="sTG8xCZrIZPABYyQ_F5g-48" value="" style="curved=1;endArrow=block;html=1;rounded=0;entryX=0.833;entryY=0;entryDx=0;entryDy=0;entryPerimeter=0;strokeWidth=9;exitX=0.167;exitY=0;exitDx=0;exitDy=0;exitPerimeter=0;endFill=1;" edge="1" parent="1">
          <mxGeometry width="50" height="50" relative="1" as="geometry">
            <mxPoint x="1480" y="260" as="sourcePoint" />
            <mxPoint x="1640" y="260" as="targetPoint" />
            <Array as="points">
              <mxPoint x="1480" y="180" />
              <mxPoint x="1640" y="180" />
            </Array>
          </mxGeometry>
        </mxCell>
        <mxCell id="sTG8xCZrIZPABYyQ_F5g-49" value="" style="curved=1;endArrow=block;html=1;rounded=0;entryX=0.833;entryY=0;entryDx=0;entryDy=0;entryPerimeter=0;strokeWidth=9;exitX=0.167;exitY=0;exitDx=0;exitDy=0;exitPerimeter=0;endFill=1;" edge="1" parent="1">
          <mxGeometry width="50" height="50" relative="1" as="geometry">
            <mxPoint x="1480" y="540" as="sourcePoint" />
            <mxPoint x="1640" y="540" as="targetPoint" />
            <Array as="points">
              <mxPoint x="1480" y="460" />
              <mxPoint x="1640" y="460" />
            </Array>
          </mxGeometry>
        </mxCell>
        <mxCell id="sTG8xCZrIZPABYyQ_F5g-50" value="&lt;div&gt;VSYNC = 0&lt;/div&gt;" style="text;html=1;align=center;verticalAlign=middle;whiteSpace=wrap;rounded=0;fontSize=32;" vertex="1" parent="1">
          <mxGeometry x="80" y="-30" width="240" height="100" as="geometry" />
        </mxCell>
        <mxCell id="sTG8xCZrIZPABYyQ_F5g-51" value="&lt;div&gt;HSYNC = 0&lt;/div&gt;" style="text;html=1;align=center;verticalAlign=middle;whiteSpace=wrap;rounded=0;fontSize=36;" vertex="1" parent="1">
          <mxGeometry x="520" y="-30" width="240" height="100" as="geometry" />
        </mxCell>
        <mxCell id="sTG8xCZrIZPABYyQ_F5g-52" value="SAV READING" style="text;html=1;align=center;verticalAlign=middle;whiteSpace=wrap;rounded=0;fontSize=32;" vertex="1" parent="1">
          <mxGeometry x="960" y="-30" width="240" height="100" as="geometry" />
        </mxCell>
        <mxCell id="sTG8xCZrIZPABYyQ_F5g-60" value="# PIXELS &amp;lt; MAX" style="text;html=1;align=center;verticalAlign=middle;whiteSpace=wrap;rounded=0;fontSize=32;" vertex="1" parent="1">
          <mxGeometry x="1430" y="410" width="260" height="60" as="geometry" />
        </mxCell>
        <mxCell id="sTG8xCZrIZPABYyQ_F5g-63" value="" style="curved=1;endArrow=block;html=1;rounded=0;entryX=0.833;entryY=0;entryDx=0;entryDy=0;entryPerimeter=0;strokeWidth=9;exitX=0.167;exitY=0;exitDx=0;exitDy=0;exitPerimeter=0;endFill=1;" edge="1" parent="1">
          <mxGeometry width="50" height="50" relative="1" as="geometry">
            <mxPoint x="1000" y="720" as="sourcePoint" />
            <mxPoint x="1160" y="720" as="targetPoint" />
            <Array as="points">
              <mxPoint x="1000" y="640" />
              <mxPoint x="1160" y="640" />
            </Array>
          </mxGeometry>
        </mxCell>
        <mxCell id="sTG8xCZrIZPABYyQ_F5g-64" value="EAV READING" style="text;html=1;align=center;verticalAlign=middle;whiteSpace=wrap;rounded=0;fontSize=32;" vertex="1" parent="1">
          <mxGeometry x="960" y="570" width="240" height="100" as="geometry" />
        </mxCell>
        <mxCell id="sTG8xCZrIZPABYyQ_F5g-67" value="" style="curved=1;endArrow=block;html=1;rounded=0;entryX=1;entryY=0.75;entryDx=0;entryDy=0;strokeWidth=9;exitX=1;exitY=0.25;exitDx=0;exitDy=0;endFill=1;" edge="1" parent="1">
          <mxGeometry width="50" height="50" relative="1" as="geometry">
            <mxPoint x="320" y="520" as="sourcePoint" />
            <mxPoint x="320" y="600" as="targetPoint" />
            <Array as="points">
              <mxPoint x="380" y="520" />
              <mxPoint x="380" y="600" />
            </Array>
          </mxGeometry>
        </mxCell>
        <mxCell id="sTG8xCZrIZPABYyQ_F5g-69" value="VSYNC = 1" style="text;html=1;align=center;verticalAlign=middle;whiteSpace=wrap;rounded=0;fontSize=32;" vertex="1" parent="1">
          <mxGeometry x="340" y="460" width="180" height="80" as="geometry" />
        </mxCell>
        <mxCell id="sTG8xCZrIZPABYyQ_F5g-72" value="# PIXELS &amp;lt; MAX" style="text;html=1;align=center;verticalAlign=middle;whiteSpace=wrap;rounded=0;fontSize=32;" vertex="1" parent="1">
          <mxGeometry x="1430" y="130" width="260" height="60" as="geometry" />
        </mxCell>
        <mxCell id="sTG8xCZrIZPABYyQ_F5g-73" value="# PIXELS &amp;lt; MAX" style="text;html=1;align=center;verticalAlign=middle;whiteSpace=wrap;rounded=0;fontSize=32;" vertex="1" parent="1">
          <mxGeometry x="1430" y="-150" width="260" height="60" as="geometry" />
        </mxCell>
        <mxCell id="sTG8xCZrIZPABYyQ_F5g-74" value="# PIXELS &amp;lt; MAX" style="text;html=1;align=center;verticalAlign=middle;whiteSpace=wrap;rounded=0;fontSize=32;" vertex="1" parent="1">
          <mxGeometry x="1430" y="-430" width="260" height="60" as="geometry" />
        </mxCell>
        <mxCell id="sTG8xCZrIZPABYyQ_F5g-76" value="" style="shape=table;startSize=0;container=1;collapsible=0;childLayout=tableLayout;fontSize=36;fillColor=#d5e8d4;strokeColor=#000000;" vertex="1" parent="1">
          <mxGeometry x="300" y="-320" width="680" height="280" as="geometry" />
        </mxCell>
        <mxCell id="sTG8xCZrIZPABYyQ_F5g-77" value="" style="shape=tableRow;horizontal=0;startSize=0;swimlaneHead=0;swimlaneBody=0;strokeColor=#000000;top=0;left=0;bottom=0;right=0;collapsible=0;dropTarget=0;fillColor=none;points=[[0,0.5],[1,0.5]];portConstraint=eastwest;" vertex="1" parent="sTG8xCZrIZPABYyQ_F5g-76">
          <mxGeometry width="680" height="71" as="geometry" />
        </mxCell>
        <mxCell id="sTG8xCZrIZPABYyQ_F5g-78" value="&lt;div&gt;Valid SAV&lt;/div&gt;" style="shape=partialRectangle;html=1;whiteSpace=wrap;connectable=0;strokeColor=#000000;overflow=hidden;fillColor=none;top=0;left=0;bottom=0;right=0;pointerEvents=1;fontSize=36;" vertex="1" parent="sTG8xCZrIZPABYyQ_F5g-77">
          <mxGeometry width="212" height="71" as="geometry">
            <mxRectangle width="212" height="71" as="alternateBounds" />
          </mxGeometry>
        </mxCell>
        <mxCell id="sTG8xCZrIZPABYyQ_F5g-79" value="&lt;font&gt;0xFFF 0x000 0x000 0x800&lt;/font&gt;" style="shape=partialRectangle;html=1;whiteSpace=wrap;connectable=0;strokeColor=#000000;overflow=hidden;fillColor=none;top=0;left=0;bottom=0;right=0;pointerEvents=1;fontSize=36;" vertex="1" parent="sTG8xCZrIZPABYyQ_F5g-77">
          <mxGeometry x="212" width="468" height="71" as="geometry">
            <mxRectangle width="468" height="71" as="alternateBounds" />
          </mxGeometry>
        </mxCell>
        <mxCell id="sTG8xCZrIZPABYyQ_F5g-80" value="" style="shape=tableRow;horizontal=0;startSize=0;swimlaneHead=0;swimlaneBody=0;strokeColor=#000000;top=0;left=0;bottom=0;right=0;collapsible=0;dropTarget=0;fillColor=none;points=[[0,0.5],[1,0.5]];portConstraint=eastwest;" vertex="1" parent="sTG8xCZrIZPABYyQ_F5g-76">
          <mxGeometry y="71" width="680" height="69" as="geometry" />
        </mxCell>
        <mxCell id="sTG8xCZrIZPABYyQ_F5g-81" value="Valid EAV" style="shape=partialRectangle;html=1;whiteSpace=wrap;connectable=0;strokeColor=#000000;overflow=hidden;fillColor=none;top=0;left=0;bottom=0;right=0;pointerEvents=1;fontSize=36;" vertex="1" parent="sTG8xCZrIZPABYyQ_F5g-80">
          <mxGeometry width="212" height="69" as="geometry">
            <mxRectangle width="212" height="69" as="alternateBounds" />
          </mxGeometry>
        </mxCell>
        <mxCell id="sTG8xCZrIZPABYyQ_F5g-82" value="0xFFF 0x000 0x000 0x9D0" style="shape=partialRectangle;html=1;whiteSpace=wrap;connectable=0;strokeColor=#000000;overflow=hidden;fillColor=none;top=0;left=0;bottom=0;right=0;pointerEvents=1;fontSize=36;" vertex="1" parent="sTG8xCZrIZPABYyQ_F5g-80">
          <mxGeometry x="212" width="468" height="69" as="geometry">
            <mxRectangle width="468" height="69" as="alternateBounds" />
          </mxGeometry>
        </mxCell>
        <mxCell id="sTG8xCZrIZPABYyQ_F5g-83" value="" style="shape=tableRow;horizontal=0;startSize=0;swimlaneHead=0;swimlaneBody=0;strokeColor=#000000;top=0;left=0;bottom=0;right=0;collapsible=0;dropTarget=0;fillColor=none;points=[[0,0.5],[1,0.5]];portConstraint=eastwest;" vertex="1" parent="sTG8xCZrIZPABYyQ_F5g-76">
          <mxGeometry y="140" width="680" height="71" as="geometry" />
        </mxCell>
        <mxCell id="sTG8xCZrIZPABYyQ_F5g-84" value="Invalid SAV" style="shape=partialRectangle;html=1;whiteSpace=wrap;connectable=0;strokeColor=#000000;overflow=hidden;fillColor=none;top=0;left=0;bottom=0;right=0;pointerEvents=1;fontSize=36;" vertex="1" parent="sTG8xCZrIZPABYyQ_F5g-83">
          <mxGeometry width="212" height="71" as="geometry">
            <mxRectangle width="212" height="71" as="alternateBounds" />
          </mxGeometry>
        </mxCell>
        <mxCell id="sTG8xCZrIZPABYyQ_F5g-85" value="0xFFF 0x000 0x000 0xAB0" style="shape=partialRectangle;html=1;whiteSpace=wrap;connectable=0;strokeColor=#000000;overflow=hidden;fillColor=none;top=0;left=0;bottom=0;right=0;pointerEvents=1;fontSize=36;" vertex="1" parent="sTG8xCZrIZPABYyQ_F5g-83">
          <mxGeometry x="212" width="468" height="71" as="geometry">
            <mxRectangle width="468" height="71" as="alternateBounds" />
          </mxGeometry>
        </mxCell>
        <mxCell id="sTG8xCZrIZPABYyQ_F5g-86" value="" style="shape=tableRow;horizontal=0;startSize=0;swimlaneHead=0;swimlaneBody=0;strokeColor=#000000;top=0;left=0;bottom=0;right=0;collapsible=0;dropTarget=0;fillColor=none;points=[[0,0.5],[1,0.5]];portConstraint=eastwest;" vertex="1" parent="sTG8xCZrIZPABYyQ_F5g-76">
          <mxGeometry y="211" width="680" height="69" as="geometry" />
        </mxCell>
        <mxCell id="sTG8xCZrIZPABYyQ_F5g-87" value="Invalid EAV" style="shape=partialRectangle;html=1;whiteSpace=wrap;connectable=0;strokeColor=#000000;overflow=hidden;fillColor=none;top=0;left=0;bottom=0;right=0;pointerEvents=1;fontSize=36;" vertex="1" parent="sTG8xCZrIZPABYyQ_F5g-86">
          <mxGeometry width="212" height="69" as="geometry">
            <mxRectangle width="212" height="69" as="alternateBounds" />
          </mxGeometry>
        </mxCell>
        <mxCell id="sTG8xCZrIZPABYyQ_F5g-88" value="0xFFF 0x000 0x000 0xB60" style="shape=partialRectangle;html=1;whiteSpace=wrap;connectable=0;strokeColor=#000000;overflow=hidden;fillColor=none;top=0;left=0;bottom=0;right=0;pointerEvents=1;fontSize=36;" vertex="1" parent="sTG8xCZrIZPABYyQ_F5g-86">
          <mxGeometry x="212" width="468" height="69" as="geometry">
            <mxRectangle width="468" height="69" as="alternateBounds" />
          </mxGeometry>
        </mxCell>
        <mxCell id="sTG8xCZrIZPABYyQ_F5g-89" value="" style="curved=1;endArrow=block;html=1;rounded=0;entryX=1;entryY=0.75;entryDx=0;entryDy=0;strokeWidth=9;exitX=1;exitY=0.25;exitDx=0;exitDy=0;endFill=1;" edge="1" parent="1">
          <mxGeometry width="50" height="50" relative="1" as="geometry">
            <mxPoint x="760" y="520" as="sourcePoint" />
            <mxPoint x="760" y="600" as="targetPoint" />
            <Array as="points">
              <mxPoint x="820" y="520" />
              <mxPoint x="820" y="600" />
            </Array>
          </mxGeometry>
        </mxCell>
        <mxCell id="sTG8xCZrIZPABYyQ_F5g-90" value="HSYNC = 1" style="text;html=1;align=center;verticalAlign=middle;whiteSpace=wrap;rounded=0;fontSize=32;" vertex="1" parent="1">
          <mxGeometry x="780" y="460" width="180" height="80" as="geometry" />
        </mxCell>
      </root>
    </mxGraphModel>
  </diagram>
</mxfile>
